<svg width="48" height="48" viewBox="0 0 48 48" fill="none" xmlns="http://www.w3.org/2000/svg">
<path d="M1 42.6999L24 2.8999L47 42.6999H1ZM7.7 38.7999H40.3L24 10.6499L7.7 38.7999ZM24.2 36.2499C24.7 36.2499 25.1083 36.0832 25.425 35.7499C25.7417 35.4166 25.9 35.0166 25.9 34.5499C25.9 34.1166 25.7333 33.7249 25.4 33.3749C25.0667 33.0249 24.6667 32.8499 24.2 32.8499C23.7333 32.8499 23.3333 33.0249 23 33.3749C22.6667 33.7249 22.5 34.1332 22.5 34.5999C22.5 35.0666 22.675 35.4582 23.025 35.7749C23.375 36.0916 23.7667 36.2499 24.2 36.2499V36.2499ZM22.6 30.6499H25.8V19.6499H22.6V30.6499Z" fill="white"/>
</svg>
