<svg width="48" height="48" viewBox="0 0 48 48" fill="none" xmlns="http://www.w3.org/2000/svg">
<path d="M21.2 31.2C21.2333 28.5 21.5583 26.5166 22.175 25.25C22.7916 23.9833 23.8333 22.7333 25.3 21.5C26.6666 20.4333 27.6833 19.375 28.35 18.325C29.0166 17.275 29.35 16.1166 29.35 14.85C29.35 13.4833 28.9 12.35 28 11.45C27.1 10.55 25.8333 10.1 24.2 10.1C22.6666 10.1 21.4083 10.55 20.425 11.45C19.4416 12.35 18.7 13.4333 18.2 14.7L12.85 12.4C13.7166 10.0666 15.1 8.15828 17 6.67495C18.9 5.19162 21.3 4.44995 24.2 4.44995C27.7333 4.44995 30.4583 5.45828 32.375 7.47495C34.2916 9.49162 35.25 11.9166 35.25 14.75C35.25 16.65 34.8916 18.325 34.175 19.775C33.4583 21.225 32.35 22.6166 30.85 23.95C29.2833 25.3833 28.3166 26.525 27.95 27.375C27.5833 28.225 27.4166 29.5 27.45 31.2H21.2ZM24.2 45C23 45 21.975 44.5749 21.125 43.7249C20.275 42.8749 19.85 41.85 19.85 40.65C19.85 39.45 20.275 38.425 21.125 37.575C21.975 36.725 23 36.2999 24.2 36.2999C25.4333 36.2999 26.4666 36.725 27.3 37.575C28.1333 38.425 28.55 39.45 28.55 40.65C28.55 41.85 28.1333 42.8749 27.3 43.7249C26.4666 44.5749 25.4333 45 24.2 45Z" fill="white"/>
</svg>
