<?xml version="1.0" standalone="no"?>
<!DOCTYPE svg PUBLIC "-//W3C//DTD SVG 20010904//EN"
 "http://www.w3.org/TR/2001/REC-SVG-20010904/DTD/svg10.dtd">
<svg version="1.0" xmlns="http://www.w3.org/2000/svg"
 width="100.000000pt" height="100.000000pt" viewBox="0 0 100.000000 100.000000"
 preserveAspectRatio="xMidYMid meet">

<g transform="translate(0.000000,100.000000) scale(0.100000,-0.100000)"
fill="#000000" stroke="none">
<path d="M450 800 c-17 -33 -33 -60 -36 -60 -3 0 -17 9 -31 20 -30 23 -53 12
-53 -26 0 -34 -12 -36 -79 -12 -33 12 -63 19 -67 16 -3 -3 3 -36 14 -73 l20
-66 -30 -6 c-37 -7 -45 -25 -24 -55 9 -12 16 -25 16 -28 0 -4 -27 -19 -60 -35
-33 -16 -60 -34 -60 -40 0 -6 21 -22 48 -36 l47 -24 -52 -3 c-29 -2 -53 -7
-53 -13 0 -5 170 -9 440 -9 271 0 440 4 440 10 0 5 -26 10 -57 12 l-58 3 48
24 c26 14 47 30 47 36 0 6 -27 24 -60 40 -33 16 -60 31 -60 34 0 2 10 15 21
27 28 30 19 50 -25 58 -20 4 -36 11 -36 16 0 4 10 33 21 64 12 31 19 59 15 63
-5 6 -26 0 -122 -34 -7 -2 -14 11 -18 31 -7 39 -33 49 -56 21 -20 -24 -28 -18
-60 45 -17 33 -35 60 -40 60 -5 0 -23 -27 -40 -60z m68 -45 c24 -49 51 -58 84
-28 17 15 18 15 18 -9 0 -14 7 -31 16 -39 15 -12 21 -11 101 18 10 4 9 -6 -2
-37 -23 -64 -20 -80 15 -87 37 -7 44 -17 25 -33 -31 -26 -18 -55 36 -80 l50
-24 -58 -31 -58 -30 -260 0 -260 0 -58 31 -58 30 50 23 c58 28 68 44 46 78
-15 22 -14 24 9 33 35 13 37 22 21 76 -8 26 -13 49 -11 51 1 2 24 -4 49 -13
58 -19 73 -15 82 25 l7 31 24 -19 c33 -26 44 -20 73 34 13 25 27 45 30 45 4 0
17 -20 29 -45z"/>
<path d="M631 321 c-17 -11 -7 -41 13 -41 22 0 30 20 15 36 -9 8 -19 10 -28 5z
m20 -24 c-13 -13 -26 -3 -16 12 3 6 11 8 17 5 6 -4 6 -10 -1 -17z"/>
<path d="M398 299 c-24 -13 -23 -29 2 -29 16 0 20 -7 20 -36 0 -27 -5 -37 -20
-41 -37 -10 -20 -23 30 -23 50 0 67 13 30 23 -17 4 -20 14 -20 61 0 58 -7 66
-42 45z"/>
<path d="M507 304 c-15 -16 -6 -23 23 -17 26 5 30 2 30 -15 0 -12 -13 -37 -30
-55 -16 -19 -30 -37 -30 -41 0 -3 23 -6 50 -6 28 0 50 5 50 10 0 6 -14 10 -32
10 l-32 0 28 29 c20 21 27 37 24 57 -3 25 -8 29 -38 32 -20 2 -39 0 -43 -4z"/>
</g>
</svg>
