<svg width="21" height="22" viewBox="0 0 21 22" fill="none" xmlns="http://www.w3.org/2000/svg">
<path d="M19.7211 9.72017C19.5387 9.57447 19.3258 9.47173 19.0982 9.41957C18.8707 9.36742 18.6343 9.36719 18.4066 9.4189C18.0658 9.49587 17.7121 9.49565 17.3714 9.41826C17.0307 9.34087 16.7116 9.18826 16.4375 8.97161C16.1633 8.75497 15.9411 8.47976 15.7871 8.16614C15.6331 7.85253 15.5512 7.50844 15.5474 7.15907C15.5455 6.74851 15.3816 6.35529 15.0913 6.06496C14.801 5.77463 14.4078 5.61068 13.9972 5.60878C13.6478 5.60497 13.3037 5.52306 12.9901 5.36907C12.6765 5.21507 12.4013 4.99288 12.1846 4.71876C11.9679 4.44465 11.8153 4.12555 11.7379 3.78482C11.6606 3.4441 11.6604 3.09038 11.7373 2.74957C11.7885 2.52136 11.7878 2.28458 11.7353 2.05667C11.6828 1.82877 11.5798 1.61554 11.434 1.43269C11.2882 1.24984 11.1032 1.10203 10.8927 1.00014C10.6822 0.898248 10.4515 0.844871 10.2176 0.84394C10.1964 0.843843 10.1756 0.84375 10.1544 0.84375C8.14313 0.84411 6.17722 1.44165 4.50591 2.56062C2.83461 3.6796 1.53318 5.26961 0.7666 7.12911C2.24449e-05 8.9886 -0.197181 11.0338 0.199989 13.0055C0.597159 14.9772 1.57082 16.7866 2.99753 18.2043C4.42425 19.622 6.23978 20.5842 8.21396 20.9688C10.1881 21.3534 12.2321 21.1433 14.0867 20.3649C15.9413 19.5865 17.523 18.275 18.6313 16.5967C19.7397 14.9183 20.3247 12.9486 20.3123 10.9373V10.9372C20.3115 10.703 20.2579 10.472 20.1555 10.2613C20.0532 10.0506 19.9047 9.86564 19.7211 9.72017ZM5.03106 8.21785C5.19495 8.05395 5.40376 7.94234 5.63109 7.89713C5.85841 7.85191 6.09404 7.87512 6.30817 7.96381C6.52231 8.05251 6.70533 8.20271 6.8341 8.39543C6.96287 8.58814 7.0316 8.81472 7.0316 9.04649C7.0316 9.27827 6.96287 9.50484 6.8341 9.69756C6.70533 9.89027 6.52231 10.0405 6.30817 10.1292C6.09404 10.2179 5.85841 10.2411 5.63109 10.1959C5.40376 10.1506 5.19495 10.039 5.03106 9.87514C4.8113 9.65536 4.68785 9.35729 4.68785 9.04649C4.68785 8.73569 4.8113 8.43762 5.03106 8.21785V8.21785ZM7.46961 15.3439C7.30572 15.5078 7.09691 15.6194 6.86958 15.6646C6.64226 15.7098 6.40663 15.6866 6.1925 15.5979C5.97837 15.5092 5.79534 15.359 5.66657 15.1663C5.53781 14.9736 5.46908 14.747 5.46908 14.5152C5.46908 14.2835 5.53781 14.0569 5.66657 13.8642C5.79534 13.6715 5.97837 13.5213 6.1925 13.4326C6.40663 13.3439 6.64226 13.3207 6.86958 13.3659C7.09691 13.4111 7.30572 13.5227 7.46961 13.6866C7.68937 13.9064 7.81282 14.2044 7.81282 14.5152C7.81282 14.826 7.68937 15.1241 7.46961 15.3439V15.3439ZM10.1092 11.4376C9.9453 11.2738 9.83369 11.0649 9.78847 10.8376C9.74325 10.6103 9.76646 10.3747 9.85515 10.1605C9.94385 9.9464 10.0941 9.76337 10.2868 9.63461C10.4795 9.50584 10.7061 9.43711 10.9378 9.43711C11.1696 9.43711 11.3962 9.50584 11.5889 9.63461C11.7816 9.76337 11.9318 9.9464 12.0205 10.1605C12.1092 10.3747 12.1324 10.6103 12.0872 10.8376C12.042 11.0649 11.9304 11.2738 11.7665 11.4376C11.5467 11.6574 11.2486 11.7809 10.9378 11.7809C10.627 11.7809 10.329 11.6574 10.1092 11.4376V11.4376ZM13.7196 16.1251C13.5557 16.289 13.3469 16.4006 13.1196 16.4459C12.8923 16.4911 12.6566 16.4679 12.4425 16.3792C12.2284 16.2905 12.0453 16.1403 11.9166 15.9476C11.7878 15.7548 11.7191 15.5283 11.7191 15.2965C11.7191 15.0647 11.7878 14.8381 11.9166 14.6454C12.0453 14.4527 12.2284 14.3025 12.4425 14.2138C12.6566 14.1251 12.8923 14.1019 13.1196 14.1471C13.3469 14.1923 13.5557 14.304 13.7196 14.4678C13.9394 14.6876 14.0628 14.9857 14.0628 15.2965C14.0628 15.6073 13.9394 15.9054 13.7196 16.1251V16.1251Z" fill="#495340"/>
</svg>
