<svg width="21" height="22" viewBox="0 0 21 22" fill="none" xmlns="http://www.w3.org/2000/svg">
<path d="M20.0336 9.72017C19.8512 9.57447 19.6383 9.47173 19.4107 9.41957C19.1832 9.36742 18.9468 9.36719 18.7191 9.4189C18.3783 9.49587 18.0246 9.49565 17.6839 9.41826C17.3432 9.34087 17.0241 9.18826 16.75 8.97161C16.4758 8.75497 16.2536 8.47976 16.0996 8.16614C15.9456 7.85253 15.8637 7.50844 15.8599 7.15907C15.858 6.74851 15.6941 6.35529 15.4038 6.06496C15.1135 5.77463 14.7203 5.61068 14.3097 5.60878C13.9603 5.60497 13.6162 5.52306 13.3026 5.36907C12.989 5.21507 12.7138 4.99288 12.4971 4.71876C12.2804 4.44465 12.1278 4.12555 12.0504 3.78482C11.9731 3.4441 11.9729 3.09038 12.0498 2.74957C12.101 2.52136 12.1003 2.28458 12.0478 2.05667C11.9953 1.82877 11.8923 1.61554 11.7465 1.43269C11.6007 1.24984 11.4157 1.10203 11.2052 1.00014C10.9947 0.898248 10.764 0.844871 10.5301 0.84394C10.5089 0.843843 10.4881 0.84375 10.4669 0.84375C8.45563 0.84411 6.48972 1.44165 4.81841 2.56062C3.14711 3.6796 1.84568 5.26961 1.0791 7.12911C0.312522 8.9886 0.115319 11.0338 0.512489 13.0055C0.909659 14.9772 1.88332 16.7866 3.31003 18.2043C4.73675 19.622 6.55228 20.5842 8.52646 20.9688C10.5006 21.3534 12.5446 21.1433 14.3992 20.3649C16.2538 19.5865 17.8355 18.275 18.9438 16.5967C20.0522 14.9183 20.6372 12.9486 20.6248 10.9373V10.9372C20.624 10.703 20.5704 10.472 20.468 10.2613C20.3657 10.0506 20.2172 9.86564 20.0336 9.72017ZM5.34356 8.21785C5.50745 8.05395 5.71626 7.94234 5.94359 7.89713C6.17091 7.85191 6.40654 7.87512 6.62067 7.96381C6.83481 8.05251 7.01783 8.20271 7.1466 8.39543C7.27537 8.58814 7.3441 8.81472 7.3441 9.04649C7.3441 9.27827 7.27537 9.50484 7.1466 9.69756C7.01783 9.89027 6.83481 10.0405 6.62067 10.1292C6.40654 10.2179 6.17091 10.2411 5.94359 10.1959C5.71626 10.1506 5.50745 10.039 5.34356 9.87514C5.1238 9.65536 5.00035 9.35729 5.00035 9.04649C5.00035 8.73569 5.1238 8.43762 5.34356 8.21785V8.21785ZM7.78211 15.3439C7.61822 15.5078 7.40941 15.6194 7.18208 15.6646C6.95476 15.7098 6.71913 15.6866 6.505 15.5979C6.29087 15.5092 6.10784 15.359 5.97907 15.1663C5.85031 14.9736 5.78158 14.747 5.78158 14.5152C5.78158 14.2835 5.85031 14.0569 5.97907 13.8642C6.10784 13.6715 6.29087 13.5213 6.505 13.4326C6.71913 13.3439 6.95476 13.3207 7.18208 13.3659C7.40941 13.4111 7.61822 13.5227 7.78211 13.6866C8.00187 13.9064 8.12532 14.2044 8.12532 14.5152C8.12532 14.826 8.00187 15.1241 7.78211 15.3439V15.3439ZM10.4217 11.4376C10.2578 11.2738 10.1462 11.0649 10.101 10.8376C10.0558 10.6103 10.079 10.3747 10.1677 10.1605C10.2564 9.9464 10.4066 9.76337 10.5993 9.63461C10.792 9.50584 11.0186 9.43711 11.2503 9.43711C11.4821 9.43711 11.7087 9.50584 11.9014 9.63461C12.0941 9.76337 12.2443 9.9464 12.333 10.1605C12.4217 10.3747 12.4449 10.6103 12.3997 10.8376C12.3545 11.0649 12.2429 11.2738 12.079 11.4376C11.8592 11.6574 11.5611 11.7809 11.2503 11.7809C10.9395 11.7809 10.6415 11.6574 10.4217 11.4376V11.4376ZM14.0321 16.1251C13.8682 16.289 13.6594 16.4006 13.4321 16.4459C13.2048 16.4911 12.9691 16.4679 12.755 16.3792C12.5409 16.2905 12.3578 16.1403 12.2291 15.9476C12.1003 15.7548 12.0316 15.5283 12.0316 15.2965C12.0316 15.0647 12.1003 14.8381 12.2291 14.6454C12.3578 14.4527 12.5409 14.3025 12.755 14.2138C12.9691 14.1251 13.2048 14.1019 13.4321 14.1471C13.6594 14.1923 13.8682 14.304 14.0321 14.4678C14.2519 14.6876 14.3753 14.9857 14.3753 15.2965C14.3753 15.6073 14.2519 15.9054 14.0321 16.1251V16.1251Z" fill="#495340"/>
</svg>
